<svg width="518" height="169" viewBox="0 0 518 169" fill="none" xmlns="http://www.w3.org/2000/svg">
<path d="M9.55188 116.791V47.3138H17.495L17.9978 56.8657H18.7016C19.9081 53.6483 21.9861 51.1011 24.9354 49.2242C27.9518 47.3474 31.3704 46.4089 35.1911 46.4089C42.0953 46.4089 47.2567 48.7885 50.6752 53.5477C54.1608 58.2399 55.9036 64.8424 55.9036 73.3553V74.4613C55.9036 83.3093 54.0938 89.9454 50.4741 94.3694C46.8545 98.7934 41.7937 101.005 35.2917 101.005C31.4709 101.005 28.0524 100.067 25.036 98.1902C22.0196 96.3133 19.9081 93.7997 18.7016 90.6492H17.9978V116.791H9.55188ZM32.3758 93.9672C36.8669 93.9672 40.386 92.6601 42.9332 90.0459C45.5474 87.3647 46.8545 83.6445 46.8545 78.8853V68.6296C46.8545 63.8034 45.5474 60.0497 42.9332 57.3685C40.386 54.6872 36.8669 53.3466 32.3758 53.3466C27.9518 53.3466 24.4327 54.7878 21.8185 57.6701C19.2713 60.5524 17.9978 64.4067 17.9978 69.2329V78.1815C17.9978 82.9407 19.2713 86.7614 21.8185 89.6438C24.4327 92.5261 27.9518 93.9672 32.3758 93.9672ZM70.5276 100V47.3138H78.9735V100H70.5276ZM70.5276 38.4658V26.7019H78.9735V38.4658H70.5276ZM117.524 101.005C109.414 101.005 103.381 98.5924 99.4259 93.7661C95.4711 88.9399 93.4937 82.3374 93.4937 73.9586V73.5564C93.4937 64.3061 95.7057 57.469 100.13 53.045C104.554 48.5539 110.352 46.3084 117.524 46.3084C124.093 46.3084 129.422 48.0512 133.511 51.5368C137.6 54.9553 139.845 59.614 140.248 65.5127H131.902C131.5 61.5579 129.992 58.5415 127.378 56.4635C124.764 54.3856 121.479 53.3466 117.524 53.3466C112.832 53.3466 109.112 54.7543 106.364 57.5695C103.615 60.3178 102.241 63.971 102.241 68.5291V78.7848C102.241 83.544 103.582 87.2642 106.263 89.9454C109.011 92.6266 112.765 93.9672 117.524 93.9672C121.948 93.9672 125.4 92.8612 127.88 90.6492C130.361 88.3702 131.735 85.4208 132.003 81.8012H140.348C140.147 85.6219 139.075 88.9734 137.131 91.8558C135.187 94.7381 132.506 96.9836 129.087 98.5924C125.736 100.201 121.881 101.005 117.524 101.005ZM170.469 101.005C163.565 101.005 158.37 98.6929 154.884 94.0678C151.466 89.3756 149.756 82.8401 149.756 74.4613V73.3553C149.756 64.3732 151.566 57.6366 155.186 53.1455C158.873 48.6545 163.967 46.4089 170.469 46.4089C174.357 46.4089 177.775 47.3474 180.725 49.2242C183.741 51.1011 185.852 53.6483 187.059 56.8657H187.763L188.165 47.3138H196.209V100H187.763V90.6492H187.059C185.785 93.7997 183.64 96.3133 180.624 98.1902C177.675 100.067 174.29 101.005 170.469 101.005ZM173.385 93.9672C177.809 93.9672 181.294 92.5261 183.841 89.6438C186.389 86.7614 187.662 82.9407 187.662 78.1815V69.2329C187.662 64.4067 186.389 60.5524 183.841 57.6701C181.294 54.7878 177.809 53.3466 173.385 53.3466C168.894 53.3466 165.341 54.6872 162.727 57.3685C160.113 60.0497 158.805 63.8034 158.805 68.6296V78.8853C158.805 83.6445 160.113 87.3647 162.727 90.0459C165.341 92.6601 168.894 93.9672 173.385 93.9672ZM231.648 101.005C224.677 101.005 219.381 99.3967 215.762 96.1792C212.209 92.9618 210.433 88.7724 210.433 83.611H218.577C218.644 87.6328 219.884 90.5152 222.297 92.258C224.777 94.0007 227.995 94.8721 231.95 94.8721C236.038 94.8721 239.055 94.0678 240.999 92.459C242.943 90.7833 243.915 88.7053 243.915 86.2252C243.915 83.678 243.378 81.7676 242.306 80.4941C241.233 79.1534 239.658 78.1815 237.58 77.5782C235.569 76.9749 233.022 76.4052 229.939 75.8689C227.995 75.6008 225.984 75.1986 223.906 74.6624C221.828 74.1261 219.884 73.3553 218.074 72.3498C216.331 71.2773 214.89 69.8697 213.751 68.1269C212.678 66.3841 212.142 64.1721 212.142 61.4908C212.142 56.6646 213.952 52.9444 217.572 50.3302C221.258 47.649 225.95 46.3084 231.648 46.3084C237.681 46.3084 242.44 47.7831 245.926 50.7324C249.478 53.6147 251.322 57.5025 251.456 62.3958L243.412 62.2952C243.345 58.9437 242.239 56.4635 240.094 54.8548C237.949 53.179 235.1 52.3412 231.547 52.3412C227.794 52.3412 225.012 53.112 223.202 54.6537C221.392 56.1284 220.487 58.1058 220.487 60.5859C220.487 62.7309 221.091 64.3732 222.297 65.5127C223.504 66.6522 225.079 67.4901 227.023 68.0263C229.034 68.5626 231.212 69.0318 233.558 69.434C235.77 69.7021 237.982 70.1043 240.194 70.6405C242.473 71.1768 244.518 71.9812 246.328 73.0536C248.205 74.1261 249.713 75.6343 250.852 77.5782C251.992 79.5221 252.562 82.0693 252.562 85.2197C252.562 90.3811 250.618 94.3024 246.73 96.9836C242.909 99.6648 237.882 101.005 231.648 101.005ZM283.59 101.005C276.619 101.005 271.324 99.3967 267.704 96.1792C264.151 92.9618 262.375 88.7724 262.375 83.611H270.519C270.586 87.6328 271.826 90.5152 274.239 92.258C276.72 94.0007 279.937 94.8721 283.892 94.8721C287.981 94.8721 290.997 94.0678 292.941 92.459C294.885 90.7833 295.857 88.7053 295.857 86.2252C295.857 83.678 295.321 81.7676 294.248 80.4941C293.176 79.1534 291.6 78.1815 289.522 77.5782C287.512 76.9749 284.964 76.4052 281.881 75.8689C279.937 75.6008 277.926 75.1986 275.848 74.6624C273.77 74.1261 271.826 73.3553 270.017 72.3498C268.274 71.2773 266.833 69.8697 265.693 68.1269C264.621 66.3841 264.084 64.1721 264.084 61.4908C264.084 56.6646 265.894 52.9444 269.514 50.3302C273.2 47.649 277.893 46.3084 283.59 46.3084C289.623 46.3084 294.382 47.7831 297.868 50.7324C301.42 53.6147 303.264 57.5025 303.398 62.3958L295.354 62.2952C295.287 58.9437 294.181 56.4635 292.036 54.8548C289.891 53.179 287.042 52.3412 283.49 52.3412C279.736 52.3412 276.954 53.112 275.144 54.6537C273.335 56.1284 272.43 58.1058 272.43 60.5859C272.43 62.7309 273.033 64.3732 274.239 65.5127C275.446 66.6522 277.021 67.4901 278.965 68.0263C280.976 68.5626 283.155 69.0318 285.501 69.434C287.713 69.7021 289.925 70.1043 292.137 70.6405C294.416 71.1768 296.46 71.9812 298.27 73.0536C300.147 74.1261 301.655 75.6343 302.795 77.5782C303.934 79.5221 304.504 82.0693 304.504 85.2197C304.504 90.3811 302.56 94.3024 298.672 96.9836C294.851 99.6648 289.824 101.005 283.59 101.005Z" fill="#DED9D9"/>
<path d="M273.335 156.54C267.574 156.54 263.037 154.848 259.724 151.463C256.447 148.042 254.809 143.037 254.809 136.448V136.231C254.809 131.874 255.547 128.202 257.023 125.213C258.535 122.224 260.678 119.974 263.451 118.461C266.223 116.913 269.518 116.139 273.335 116.139C276.432 116.139 279.186 116.697 281.599 117.813C284.011 118.894 285.974 120.424 287.486 122.404C288.998 124.385 289.917 126.707 290.241 129.372H285.326C284.966 127.355 284.191 125.681 283.003 124.349C281.851 123.016 280.429 122.026 278.736 121.378C277.08 120.694 275.279 120.352 273.335 120.352C270.382 120.352 267.898 120.928 265.881 122.08C263.901 123.196 262.406 124.745 261.398 126.725C260.39 128.706 259.886 130.992 259.886 133.585V139.094C259.886 143.055 261.038 146.26 263.343 148.708C265.647 151.121 268.978 152.327 273.335 152.327C275.315 152.327 277.152 151.985 278.844 151.301C280.537 150.617 281.959 149.609 283.111 148.276C284.263 146.908 285.002 145.234 285.326 143.253H290.241C289.917 145.918 288.998 148.258 287.486 150.275C285.974 152.255 283.993 153.803 281.545 154.92C279.132 156 276.396 156.54 273.335 156.54ZM299.141 156V116.625H303.894V151.679H324.797V156H299.141ZM334.165 156V116.625H338.918V156H334.165Z" fill="#DED9D9"/>
<circle cx="346" cy="73" r="33" fill="#035B9B"/>
<circle cx="379.5" cy="21.5" r="18.5" fill="#FFC700"/>
<circle cx="424.5" cy="18.5" r="18.5" fill="#C80741"/>
<rect x="369.185" y="51.7797" width="121" height="121" rx="14.036" transform="rotate(-14.8872 369.185 51.7797)" fill="#1E272D"/>
<path d="M370.705 57.5003C369.763 53.9583 371.871 50.3236 375.413 49.382L479.525 21.7049C483.067 20.7633 486.702 22.8713 487.643 26.4133L491.848 42.228L374.909 73.3149L370.705 57.5003Z" fill="#D9D9D9" fill-opacity="0.5"/>
<circle cx="454.874" cy="44.2583" r="3.74648" transform="rotate(-14.8872 454.874 44.2583)" fill="#D9D9D9"/>
<circle cx="464.783" cy="41.6241" r="3.74648" transform="rotate(-14.8872 464.783 41.6241)" fill="#D9D9D9"/>
<circle cx="474.693" cy="38.9897" r="3.74648" transform="rotate(-14.8872 474.693 38.9897)" fill="#D9D9D9"/>
</svg>
